<svg width="41" height="41" viewBox="0 0 41 41" fill="none" xmlns="http://www.w3.org/2000/svg">
<path d="M29.3151 37.4782C29.5675 38.2917 29.1452 39.1581 28.3497 39.4627C25.3735 40.602 22.5908 41 18.969 41C9.19023 41 0.589844 33.9901 0.589844 22.444C0.589844 10.4268 9.30857 0 22.6223 0C32.9888 0 40.4105 7.1277 40.4105 17.0243C40.4105 25.6246 35.5802 31.0441 29.2191 31.0441C26.4493 31.0441 24.4471 29.6307 24.1532 26.5079H24.0349C22.2096 29.5123 19.5587 31.0441 16.4363 31.0441C12.6065 31.0441 9.83947 28.2166 9.83947 23.3864C9.83947 16.1996 15.1392 9.66126 23.6222 9.66126C25.1756 9.66126 26.8552 9.89355 28.2687 10.2573C29.6338 10.6086 30.5011 11.9391 30.2756 13.3305L28.865 22.0315C28.2773 25.5069 28.6895 27.0972 30.3378 27.1565C32.8705 27.2156 36.0525 23.9758 36.0525 17.2013C36.0525 9.54283 31.104 3.59377 21.9731 3.59377C12.9605 3.59377 5.06656 10.6622 5.06656 21.9138C5.06656 31.7513 11.369 37.3477 20.1464 37.3477C22.431 37.3477 24.8173 36.9729 26.866 36.2495C27.3532 36.0775 27.8894 36.1114 28.3513 36.3431C28.8132 36.5748 29.1618 36.9844 29.3149 37.478L29.3151 37.4782ZM24.4302 15.0727C24.4746 14.7713 24.273 14.4887 23.9735 14.4331C23.6067 14.365 23.1809 14.3146 22.6792 14.3146C18.7921 14.3146 15.7299 18.1439 15.7299 22.6797C15.7299 24.9186 16.7303 26.332 18.6739 26.332C20.8539 26.332 23.1514 23.5636 23.6824 20.1466L24.4302 15.0727Z" fill="#00AEEF"/>
</svg>
