<svg width="18" height="15" viewBox="0 0 18 15" fill="none" xmlns="http://www.w3.org/2000/svg">
<path d="M1.14791 6.78777C6.39041 4.48151 13.1742 1.66977 14.1109 1.28052C16.5672 0.262016 17.3209 0.457016 16.9452 2.71302C16.6752 4.33452 15.8967 9.70226 15.2757 13.0435C14.9074 15.025 14.0809 15.2598 12.7819 14.4025C12.1572 13.99 9.00341 11.9043 8.31866 11.4145C7.69391 10.9683 6.83216 10.4313 7.91291 9.37377C8.29766 8.99727 10.8184 6.58977 12.7827 4.71627C13.0399 4.47027 12.7167 4.06602 12.4197 4.26327C9.77216 6.01902 6.10166 8.45577 5.63441 8.77302C4.92866 9.25227 4.25066 9.47202 3.03416 9.12252C2.11466 8.85852 1.21691 8.54352 0.867411 8.42352C-0.478839 7.96152 -0.159338 7.36302 1.14791 6.78777Z" fill="white"/>
</svg>
